<svg fill="#ff7b00" width="52" height="52" viewBox="0 0 64 64" xmlns="http://www.w3.org/2000/svg"><path d="M62.7783 45.6615C62.3475 44.4893 61.5269 43.862 60.5923 43.3424C60.4165 43.2395 60.2549 43.1571 60.1171 43.0937C59.8383 42.9496 59.5532 42.8102 59.2696 42.6629C56.3565 41.1184 54.0818 39.17 52.504 36.8604C52.056 36.2102 51.6673 35.521 51.3429 34.8011C51.2082 34.4161 51.2146 34.1975 51.3112 33.998C51.407 33.8442 51.5338 33.712 51.6835 33.6099C52.184 33.2788 52.7004 32.943 53.0505 32.7164C53.6746 32.3125 54.1689 31.9925 54.4873 31.766C55.6833 30.9296 56.5197 30.0409 57.0424 29.0477C57.4071 28.3615 57.6198 27.6048 57.666 26.8291C57.7122 26.0533 57.5908 25.2767 57.3101 24.5521C56.5181 22.4674 54.5491 21.1732 52.1634 21.1732C51.6602 21.1728 51.1584 21.2259 50.6665 21.3317C50.535 21.3602 50.4035 21.3903 50.2752 21.4235C50.2974 19.9979 50.2657 18.493 50.139 17.0119C49.6891 11.805 47.8658 9.07563 45.9649 6.89911C44.7476 5.53521 43.3138 4.38131 41.7212 3.48384C38.8366 1.83639 35.5655 1 31.9997 1C28.4339 1 25.1786 1.83639 22.2909 3.48384C20.6943 4.38158 19.2576 5.53779 18.0392 6.90545C16.1383 9.08197 14.315 11.8161 13.8652 17.0182C13.7384 18.4993 13.7067 20.0121 13.7273 21.4299C13.599 21.3966 13.4691 21.3665 13.3377 21.338C12.8457 21.2322 12.3439 21.1791 11.8407 21.1796C9.45349 21.1796 7.48131 22.4738 6.69244 24.5584C6.41047 25.2834 6.28786 26.0605 6.33296 26.8371C6.37806 27.6136 6.58981 28.3714 6.95381 29.0588C7.47814 30.052 8.31454 30.9407 9.51052 31.7771C9.82733 31.9988 10.3231 32.3188 10.9473 32.7275C11.2847 32.9461 11.7773 33.2661 12.2605 33.5861C12.4295 33.6954 12.5732 33.8396 12.6818 34.009C12.7832 34.2166 12.7864 34.4399 12.6359 34.8518C12.3158 35.5565 11.9336 36.2314 11.4938 36.8683C9.95089 39.1256 7.74269 41.0392 4.92302 42.571C3.42924 43.363 1.87684 43.8921 1.22103 45.6742C0.7268 47.0191 1.04995 48.5493 2.30613 49.8387C2.76715 50.32 3.30187 50.7248 3.89021 51.0379C5.11437 51.7106 6.41607 52.2314 7.76645 52.5887C8.04512 52.6606 8.30967 52.7789 8.54898 52.9388C9.00678 53.3396 8.94183 53.9431 9.5517 54.827C9.85785 55.2838 10.2468 55.6793 10.6986 55.9929C11.9785 56.8768 13.4169 56.9322 14.9407 56.9909C16.3173 57.0431 17.8776 57.1033 19.6597 57.691C20.3979 57.935 21.1646 58.407 22.0533 58.9583C24.187 60.2699 27.1081 62.0647 31.9965 62.0647C36.885 62.0647 39.8266 60.2604 41.9762 58.944C42.8586 58.4023 43.6205 57.935 44.3381 57.6974C46.1202 57.1081 47.6805 57.0495 49.0571 56.9972C50.5809 56.9386 52.0193 56.8831 53.2992 55.9992C53.8342 55.6262 54.28 55.1393 54.6045 54.5736C55.0433 53.8275 55.0322 53.3063 55.4441 52.942C55.6686 52.7897 55.917 52.6762 56.1791 52.6061C57.5479 52.2477 58.8673 51.7221 60.1076 51.0411C60.7327 50.7057 61.2953 50.2653 61.7709 49.7389L61.7867 49.7199C62.9653 48.459 63.2615 46.9731 62.7783 45.6615ZM58.4332 47.9965C55.7831 49.4601 54.0216 49.3033 52.6513 50.1857C51.487 50.9349 52.1761 52.5507 51.3302 53.1336C50.2911 53.8512 47.2195 53.0829 43.2514 54.393C39.9787 55.4749 37.8909 58.586 32.0044 58.586C26.118 58.586 24.0793 55.4812 20.7527 54.385C16.7925 53.075 13.7147 53.8433 12.6739 53.1257C11.8296 52.5428 12.5155 50.927 11.3528 50.1777C9.98099 49.2954 8.21949 49.4522 5.57091 47.9965C3.88387 47.065 4.84065 46.4884 5.403 46.216C15.0025 41.5683 16.5343 34.3924 16.6024 33.8601C16.6848 33.2154 16.7767 32.7085 16.067 32.0527C15.3811 31.4191 12.3381 29.5356 11.4938 28.9463C10.0966 27.9705 9.482 26.9963 9.93505 25.7988C10.2519 24.9703 11.0249 24.6582 11.8359 24.6582C12.0923 24.659 12.3478 24.6877 12.5979 24.7438C14.1313 25.0764 15.6203 25.8447 16.4805 26.0522C16.584 26.0788 16.6904 26.0932 16.7973 26.095C17.2567 26.095 17.4182 25.8637 17.3866 25.3378C17.2883 23.6603 17.0507 20.3907 17.3153 17.335C17.678 13.1309 19.0324 11.0478 20.6418 9.20553C21.4149 8.32003 25.0472 4.48181 31.9934 4.48181C38.9395 4.48181 42.5813 8.30419 43.3544 9.18652C44.9654 11.0288 46.3213 13.1119 46.6809 17.316C46.9455 20.3717 46.7174 23.6428 46.6097 25.3188C46.5732 25.8716 46.7395 26.076 47.1989 26.076C47.3059 26.0743 47.4122 26.0599 47.5157 26.0332C48.3775 25.8257 49.8665 25.0574 51.3999 24.7248C51.65 24.6687 51.9055 24.64 52.1618 24.6392C52.9777 24.6392 53.7459 24.956 54.0627 25.7797C54.5158 26.9773 53.9043 27.9515 52.5056 28.9273C51.6613 29.5166 48.6183 31.3985 47.9324 32.0337C47.2211 32.6895 47.3146 33.1964 47.3969 33.8411C47.4651 34.3813 48.9953 41.5572 58.5964 46.1969C59.1635 46.4805 60.1203 47.0571 58.4332 47.9965Z"/></svg>